<?xml version="1.0" encoding="utf-8"?>
<!-- Generator: Adobe Illustrator 19.1.1, SVG Export Plug-In . SVG Version: 6.00 Build 0)  -->
<svg version="1.1" id="Layer_1" xmlns="http://www.w3.org/2000/svg" xmlns:xlink="http://www.w3.org/1999/xlink" x="0px" y="0px"
	 viewBox="0 0 1084.4 249.3" style="enable-background:new 0 0 1084.4 249.3;" xml:space="preserve">
<style type="text/css">
	.st0{fill:#FFFFFF;}
	.st1{fill:#B7410E;}
</style>
<g>
	<path class="st0" d="M69.1,164.2c15.7,0,23.6-4.5,23.6-14.1c0-7.6-12.9-13.8-38.5-18.3c-32.9-5.9-49.8-20.5-50-43.9
		c0-32,25.3-47.2,59.3-47.8c19.1,0,34.3,4.2,45.5,12.6c11,8.7,16.9,20.8,17.7,36.3h-23.6c-8.7-0.3-14.3-3.4-16.6-9.3
		C84,73.4,76.5,69.7,64.1,69.7c-14.6,0-21.9,3.9-21.9,11.5s9.6,13.5,29,17.1c25.3,5.1,41.9,11.5,50,19.1c7,7.3,10.4,16.3,10.4,26.4
		c0,36.5-28.7,50-68,50c-20.8,0-36.5-4.5-46.7-13.2C5.6,172.3,0,159.4,0,142.2h38.2C39.1,158.5,50.9,164.2,69.1,164.2z"/>
	<path class="st0" d="M207.2,73.6c-22.2,0-31.8,18.6-31.8,41.3v76.2H138V0h18.8c12.4,0,18.6,6.5,18.6,18.8v44.4
		c19.1-21.9,42.4-28.1,70.3-18.3c20.8,7.6,30.6,27.5,29.5,59.9v86.3h-37.1V115C238.1,90,228.5,73.6,207.2,73.6z"/>
	<path class="st0" d="M305.3,42.4c12.1,0,18,5.9,18,18v130.7h-37.4V42.4H305.3z"/>
	<path class="st0" d="M370.5,230.8c0,12.4-6.2,18.6-18.6,18.6h-18.8V107.1c2-44.4,25-66.3,69.7-66.3c46.1,0,69.1,25,69.1,75.1
		c0,50.6-19.7,76.7-59.3,78.1c-18.6,0-32.6-7.6-42.2-23V230.8z M402.2,160.5c20.2,0,30.6-14.3,31.5-43c0-30.1-10.7-45-32-45
		s-31.5,14.9-31.2,45C371.6,146.2,382,160.5,402.2,160.5z"/>
	<path class="st0" d="M516.9,230.8c0,12.4-6.2,18.6-18.6,18.6h-18.8V107.1c2-44.4,25-66.3,69.7-66.3c46.1,0,69.2,25,69.2,75.1
		c0,50.6-19.7,76.7-59.3,78.1c-18.6,0-32.6-7.6-42.2-23V230.8z M548.7,160.5c20.2,0,30.6-14.3,31.5-43c0-30.1-10.7-45-32-45
		s-31.5,14.9-31.2,45C518.1,146.2,528.5,160.5,548.7,160.5z"/>
	<path class="st0" d="M664.5,81.2h-37.4c4.5-27.5,23.9-41,58.2-41c41,0,61.8,13.5,62.7,41v50.6c0,41-24.7,59.3-64.9,62.1
		c-35.7,2.8-60.4-13.8-60.4-46.7c0.8-35.7,26.7-45.3,64.4-48.9c16-2,24.2-6.7,24.2-14.9c-0.8-8.4-8.7-12.6-24.2-12.6
		C673.8,70.8,666.5,74.2,664.5,81.2z M711.7,130.1v-13.8c-8.7,3.7-18.8,6.7-29.8,9c-14.9,2.8-22.5,9.8-22.5,20.8
		c0.8,11.8,7,17.4,18.8,17.4C699.1,163.6,711.7,151.2,711.7,130.1z"/>
	<path class="st0" d="M793.5,63.2c9.6-15.5,23.6-23,42.2-23c39.6,1.4,59.3,27.3,59.3,77.9c0,49.5-23,74.5-69.1,75.3
		c-46.4,0.3-69.7-21.9-69.7-66.6V0H775c12.4,0,18.6,6.5,18.6,18.8V63.2z M793.5,116.4c-0.3,30.1,9.8,45.3,31.2,45.3
		c21.4,0,32-15.2,32-45.3c-0.8-28.7-11.2-42.7-31.5-42.7S794.7,87.7,793.5,116.4z"/>
	<path class="st0" d="M940.8,18.3v172.9h-37.4V0h19.4C932.7,0,940.8,8.4,940.8,18.3z"/>
	<path class="st0" d="M1017,194.5c-45-1.4-67.5-27.5-67.5-78.1c0-50.6,22.8-75.9,68-76.2c47.2,0,69.4,29,66.6,87.1h-96.1
		c1.4,22.8,11.2,34.3,29.5,34.3c8.7,0,16.9-3.7,24.2-10.7c3.4-3.7,7.6-5.3,12.6-5.3h27.5C1073.8,177.1,1053.6,194.5,1017,194.5z
		 M988.6,100.6h55.9c-2.2-19.7-11.5-29.8-27.5-29.8S991.4,81,988.6,100.6z"/>
	<path class="st1" d="M305.3,0c12.4,0,18.3,6.2,18,18.3v11h-37.4V0H305.3z"/>
</g>
</svg>
